# AST/ASF file generated using VICON BodyLanguage
# -----------------------------------------------
:version 1.10
:name VICON
:units
  mass 1.0
  length 0.45
  angle deg
:documentation
   .ast/.asf automatically generated from VICON data using
   VICON BodyBuilder and BodyLanguage model FoxedUp or BRILLIANT.MOD
:root
   order TX TY TZ RX RY RZ
   axis XYZ
   position 0 0 0  
   orientation 0 0 0 
:bonedata
  begin
     id 1 
     name lhipjoint
     direction 0.522423 -0.726805 0.445902 
     length 2.25074 
     axis 0 0 0  XYZ
  end
  begin
     id 2 
     name lfemur
     direction 0.34202 -0.939693 0  
     length 6.54609  
     axis 0 0 20  XYZ
    dof rx ry rz
    limits (-160.0 20.0)
           (-70.0 70.0)
           (-60.0 70.0)
  end
  begin
     id 3 
     name ltibia
     direction 0.34202 -0.939693 0   
     length 7.7528   
     axis 0 0 20   XYZ
    dof rx
    limits (-10.0 170.0)
  end
  begin
     id 4 
     name lfoot
     direction 0.143696 -0.394801 0.90746   
     length 1.73269   
     axis -90 7.62852e-016 20   XYZ
    dof rx rz
    limits (-45.0 90.0)
           (-70.0 20.0)
  end
  begin
     id 5 
     name ltoes
     direction 1.53633e-011 -4.21912e-011 1   
     length 0.858383   
     axis -90 7.62852e-016 20   XYZ
    dof rx
    limits (-90.0 20.0)
  end
  begin
     id 6 
     name rhipjoint
     direction -0.515943 -0.73016 0.447961   
     length 2.2404  
     axis 0 0 0  XYZ 
  end
  begin
     id 7 
     name rfemur
     direction -0.34202 -0.939693 0   
     length 6.84377   
     axis 0 0 -20   XYZ
    dof rx ry rz
    limits (-160.0 20.0)
           (-70.0 70.0)
           (-70.0 60.0)
  end
  begin
     id 8 
     name rtibia
     direction -0.34202 -0.939693 0   
     length 7.57596   
     axis 0 0 -20   XYZ
    dof rx
    limits (-10.0 170.0)
 end
 begin
     id 9 
     name rfoot
     direction -0.0999372 -0.274575 0.956358   
     length 1.78783  
     axis -90 -7.62852e-016 -20   XYZ
    dof rx rz
    limits (-45.0 90.0)
           (-20.0 70.0)
  end
  begin
     id 10 
     name rtoes
     direction -1.53535e-011 -4.21895e-011 1   
     length 0.898614   
     axis -90 -7.62852e-016 -20   XYZ
    dof rx
    limits (-90.0 20.0)
  end
  begin
     id 11 
     name lowerback
     direction -0.011775 0.996164 -0.0867116   
     length 1.91499   
     axis 0 0 0   XYZ
    dof rx ry rz
    limits (-20.0 45.0)
           (-30.0 30.0)
           (-30.0 30.0)
  end
  begin
     id 12 
     name upperback
     direction -0.00189771 0.999673 -0.0254833   
     length 1.92213   
     axis 0 0 0   XYZ
    dof rx ry rz
    limits (-20.0 45.0)
           (-30.0 30.0)
           (-30.0 30.0)
  end
  begin
     id 13 
     name thorax
     direction 0.00335995 0.999878 0.0152401   
     length 1.93138   
     axis 0 0 0   XYZ
    dof rx ry rz
    limits (-20.0 45.0)
           (-30.0 30.0)
           (-30.0 30.0)
  end
  begin
     id 14 
     name lowerneck
     direction 0.00233191 0.998509 0.0545404   
     length 1.59408   
     axis 0 0 0   XYZ
    dof rx ry rz
    limits (-20.0 45.0)
           (-30.0 30.0)
           (-30.0 30.0)
  end
  begin
     id 15 
     name upperneck
     direction 0.07881 0.9956 -0.0506934   
     length 1.59344   
     axis 0 0 0   XYZ
    dof rx ry rz
    limits (-20.0 45.0)
           (-30.0 30.0)
           (-30.0 30.0)
  end
  begin
     id 16
     name head
     direction 0.0261681 0.999378 -0.0236299  
     length 1.60935  
     axis 0 0 0   XYZ
    dof rx ry rz
    limits (-20.0 45.0)
           (-30.0 30.0)
           (-30.0 30.0)
  end
  begin
     id 17 
     name lclavicle
     direction 0.96643 0.252035 0.0499195  
     length 3.82153  
     axis 0 0 0   XYZ
    dof ry rz
    limits (-20.0 10.0)
           (0.0 20.0)
  end
  begin
     id 18 
     name lhumerus
     direction 1 -4.48967e-011 -2.01614e-018   
     length 4.87796   
     axis 180 -30 -90   XYZ
    dof rx ry rz
    limits (-60.0 90.0)
           (-90.0 90.0)
           (-90.0 90.0)
  end
  begin
     id 19
     name lradius
     direction 1 -4.48958e-011 3.1409e-027   
     length 3.23169   
     axis 180 -30 -90   XYZ
    dof rx
    limits (-10.0 170.0)
  end
  begin
     id 20
     name lwrist
     direction 1 -4.48924e-011 1.0365e-027   
     length 1.61584   
     axis -2.56395e-016 90 90   XYZ
    dof ry
    limits (-180.0 0.0)
 end
  begin
     id 21 
     name lhand
     direction 1 -4.49055e-011 2.09488e-027   
     length 0.731324   
     axis -1.32723e-015 90 90   XYZ
    dof rx rz
    limits (-90.0 90.0)
           (-45.0 45.0)
  end
  begin
     id 22 
     name lfingers
     direction 1 -4.48935e-011 4.14981e-027   
     length 0.589612   
     axis -2.6545e-015 90 90   XYZ
    dof rx
    limits (0.0 90.0)
  end
  begin
     id 23
     name lthumb
     direction 0.707107 -6.35097e-011 0.707107   
     length 0.846569   
     axis -90 45 5.05613e-014   XYZ
    dof rx rz
    limits (-45.0 45.0)
           (-45.0 45.0)
  end
  begin
     id 24 
     name rclavicle
     direction -0.979337 0.201016 0.0221522   
     length 3.73827  
     axis 0 0 0   XYZ 
    dof ry rz
    limits (-10.0 20.0)
           (-20.0 0.0)
  end
  begin
     id 25 
     name rhumerus
     direction -1 -4.48971e-011 1.65907e-027  
     length 4.9143   
     axis 180 30 90   XYZ
    dof rx ry rz
    limits (-90.0 60.0)
           (-90.0 90.0)
           (-90.0 90.0)
  end
  begin
     id 26 
     name rradius
     direction -1 -4.4894e-011 2.17871e-028   
     length 3.29093   
     axis 180 30 90   XYZ
    dof rx
    limits (-10.0 170.0)
  end
  begin
     id 27 
     name rwrist
     direction -1 -4.48971e-011 1.04038e-027   
     length 1.64546   
     axis -2.56395e-016 -90 -90   XYZ
    dof ry
    limits (-180.0 0.0)
  end
  begin
     id 28
     name rhand
     direction -1 -4.49017e-011 2.08843e-027   
     length 0.54512   
     axis -1.32723e-015 -90 -90   XYZ
    dof rx rz
    limits (-90.0 90.0)
           (-45.0 45.0)
  end
  begin
     id 29
     name rfingers
     direction -1 -4.48918e-011 4.1439e-027   
     length 0.43949   
     axis -2.6545e-015 -90 -90   XYZ
    dof rx
    limits (0.0 90.0)
  end
  begin
     id 30
     name rthumb
     direction -0.707107 -6.35065e-011 0.707107   
     length 0.631022   
     axis -90 -45 -5.05613e-014   XYZ
    dof rx rz
    limits (-45.0 45.0)
           (-45.0 45.0)
  end
:hierarchy
  begin
    root lhipjoint rhipjoint lowerback
    lhipjoint lfemur
    lfemur ltibia
    ltibia lfoot
    lfoot ltoes
    rhipjoint rfemur
    rfemur rtibia
    rtibia rfoot
    rfoot rtoes
    lowerback upperback
    upperback thorax
    thorax lowerneck lclavicle rclavicle
    lowerneck upperneck
    upperneck head
    lclavicle lhumerus
    lhumerus lradius
    lradius lwrist
    lwrist lhand lthumb
    lhand lfingers
    rclavicle rhumerus
    rhumerus rradius
    rradius rwrist
    rwrist rhand rthumb
    rhand rfingers
  end

#!OML:ASF H:\BreakDance\Project 1\Capture day 1\Session 1\Male.ASF
:FULLY-SPECIFIED
:DEGREES
676
root 23.528 13.937 3.6507 -137.675 -47.7544 177.951
lowerback 20.2696 -3.17488 -4.03583
upperback 12.9438 -6.46236 -3.3382
thorax 2.79003 -3.93787 -0.209421
lowerneck -4.44747 8.50648 4.88847
upperneck -16.3951 10.2844 -6.62212
head -4.00103 4.77466 -3.22151
rclavicle -2.03555e-013 -1.03368e-014
rhumerus -10.1089 5.79122 -78.5745
rradius 60.2818
rwrist -15.6402
rhand -37.2525 -11.6561
rfingers 7.12502
rthumb -10.3183 -41.383
lclavicle -2.03555e-013 -1.03368e-014
lhumerus 40.6601 -20.559 35.0837
lradius 18.6869
lwrist 1.22243
lhand -16.9014 -11.3408
lfingers 7.12502
lthumb 9.33045 18.4327
rfemur -105.245 10.9699 15.7352
rtibia 77.8993
rfoot -10.2431 1.66443
rtoes -26.1641
lfemur -90.623 6.01272 -37.8902
ltibia 96.6745
lfoot -21.3704 -0.0526829
ltoes -18.6386
677
root 23.5387 13.7428 3.65288 -137.507 -47.6504 177.935
lowerback 20.7776 -2.87418 -4.34447
upperback 12.8824 -6.15983 -3.27489
thorax 2.5019 -3.80591 0.0241358
lowerneck -4.5406 8.38494 4.44626
upperneck -16.6806 10.132 -6.24571
head -4.14104 4.69257 -3.02928
rclavicle -4.77083e-014 4.13472e-014
rhumerus -10.0142 5.31707 -79.1723
rradius 63.5134
rwrist -15.7558
rhand -37.2216 -11.9191
rfingers 7.12502
rthumb -10.2884 -41.6474
lclavicle -4.77083e-014 4.13472e-014
lhumerus 40.7889 -20.3639 35.6624
lradius 19.3378
lwrist 2.67136
lhand -18.1546 -11.3786
lfingers 7.12502
lthumb 8.12114 18.4453
rfemur -107.443 10.4621 14.3901
rtibia 83.6086
rfoot -10.172 0.323677
rtoes -24.5042
lfemur -93.1104 5.84969 -35.9785
ltibia 97.8501
lfoot -22.3324 -1.56391
ltoes -17.5315
678
root 23.5467 13.5386 3.65335 -137.342 -47.4748 177.921
lowerback 21.2856 -2.54677 -4.68445
upperback 12.7889 -5.8308 -3.23173
thorax 2.17584 -3.65855 0.247715
lowerneck -4.64682 8.25687 3.98126
upperneck -16.9702 9.97278 -5.8523
head -4.28236 4.60716 -2.8269
rclavicle -5.40694e-014 3.61788e-014
rhumerus -9.9926 4.92513 -79.7564
rradius 66.8413
rwrist -16.041
rhand -37.2849 -12.1282
rfingers 7.12502
rthumb -10.3495 -41.8535
lclavicle -5.40694e-014 3.61788e-014
lhumerus 40.9142 -20.3369 36.1568
lradius 19.9469
lwrist 3.87468
lhand -19.3475 -11.5505
lfingers 7.12502
lthumb 6.9697 18.3148
rfemur -109.384 9.87853 13.1765
rtibia 88.9764
rfoot -9.97552 -0.525169
rtoes -22.558
lfemur -95.5015 5.87865 -34.0808
ltibia 98.8421
lfoot -23.3629 -3.89513
ltoes -14.8969
679
root 23.5519 13.3245 3.65275 -137.182 -47.2528 177.905
lowerback 21.8008 -2.20408 -5.033
upperback 12.6706 -5.48797 -3.20562
thorax 1.81467 -3.5009 0.453434
lowerneck -4.80565 8.12443 3.60738
upperneck -17.2065 9.79758 -5.54454
head -4.38522 4.51339 -2.66265
rclavicle -2.22639e-014 -3.85642e-014
rhumerus -10.0039 4.61581 -80.3145
rradius 70.2243
rwrist -16.4848
rhand -37.3506 -12.093
rfingers 7.12502
rthumb -10.4128 -41.8152
lclavicle -2.22639e-014 -3.85642e-014
lhumerus 41.1177 -20.559 36.4247
lradius 20.4572
lwrist 4.90112
lhand -20.477 -11.8509
lfingers 7.12502
lthumb 5.87928 18.0476
rfemur -111.042 9.20386 12.1152
rtibia 93.9629
rfoot -9.71479 -0.819199
rtoes -20.2375
lfemur -97.7922 6.06484 -32.2501
ltibia 99.8121
lfoot -24.2939 -6.94494
ltoes -11.3838
680
root 23.5597 13.1416 3.65564 -137.046 -47.0102 177.892
lowerback 22.3415 -1.85935 -5.37162
upperback 12.5363 -5.14781 -3.18781
thorax 1.41928 -3.34077 0.643322
lowerneck -5.02285 7.99204 3.35167
upperneck -17.3847 9.60693 -5.36295
head -4.44292 4.41191 -2.55412
rclavicle -3.18055e-014 5.76476e-014
rhumerus -10.0066 4.40321 -80.8246
rradius 73.6342
rwrist -17.0628
rhand -37.3418 -11.6986
rfingers 7.12502
rthumb -10.4044 -41.4212
lclavicle -3.18055e-014 5.76476e-014
lhumerus 41.3876 -20.9997 36.4592
lradius 20.8586
lwrist 5.72326
lhand -21.5762 -12.3194
lfingers 7.12502
lthumb 4.81801 17.6058
rfemur -112.07 8.41756 11.2428
rtibia 98.2224
rfoot -9.52992 -0.455709
rtoes -18.3037
lfemur -99.7458 6.39243 -30.4645
ltibia 100.612
lfoot -24.7596 -10.8166
ltoes -6.57936
681
root 23.5611 12.9256 3.65547 -136.933 -46.7739 177.866
lowerback 22.9245 -1.5219 -5.70467
upperback 12.3962 -4.82515 -3.16187
thorax 0.995898 -3.18689 0.839986
lowerneck -5.28884 7.86601 3.21553
upperneck -17.5209 9.40528 -5.33421
head -4.46174 4.30555 -2.51215
rclavicle 7.4743e-014 4.33351e-014
rhumerus -9.95922 4.28111 -81.2623
rradius 77.0506
rwrist -17.7107
rhand -37.1878 -10.9595
rfingers 7.12502
rthumb -10.2558 -40.6895
lclavicle 7.4743e-014 4.33351e-014
lhumerus 41.6638 -21.7792 36.0835
lradius 21.3847
lwrist 6.57235
lhand -22.7499 -12.8328
lfingers 7.12502
lthumb 3.68463 17.1151
rfemur -112.935 7.52983 10.5742
rtibia 102.122
rfoot -9.5185 0.535573
rtoes -17.3014
lfemur -101.772 6.79609 -28.7827
ltibia 101.819
lfoot -24.5091 -15.1627
ltoes -1.1163
682
root 23.5606 12.7081 3.65576 -136.842 -46.5686 177.802
lowerback 23.5847 -1.20128 -6.01444
upperback 12.2564 -4.53335 -3.12999
thorax 0.534085 -3.04516 1.03565
lowerneck -5.61104 7.75095 3.19521
upperneck -17.6235 9.19838 -5.44436
head -4.44482 4.19556 -2.53193
rclavicle 3.81667e-014 6.0033e-014
rhumerus -9.84411 4.21379 -81.629
rradius 80.4655
rwrist -18.3188
rhand -36.8623 -10.0392
rfingers 7.12502
rthumb -9.94184 -39.7845
lclavicle 3.81667e-014 6.0033e-014
lhumerus 41.8928 -22.6382 35.6775
lradius 21.9025
lwrist 7.07744
lhand -24.0612 -13.4664
lfingers 7.12502
lthumb 2.41823 16.4997
rfemur -113.407 6.52267 10.1286
rtibia 105.425
rfoot -9.89971 2.03992
rtoes -17.8051
lfemur -103.676 7.2504 -27.2853
ltibia 103.289
lfoot -23.3852 -19.5058
ltoes 4.53246
683
root 23.5566 12.487 3.6564 -136.802 -46.3941 177.696
lowerback 24.3465 -0.895401 -6.30654
upperback 12.1282 -4.27496 -3.08098
thorax 0.0375546 -2.91867 1.24658
lowerneck -5.95771 7.64904 3.22544
upperneck -17.7355 8.99308 -5.65755
head -4.41974 4.08632 -2.59476
rclavicle -1.74931e-014 -4.65156e-014
rhumerus -9.64476 4.19942 -81.8908
rradius 83.8739
rwrist -18.794
rhand -36.409 -9.09043
rfingers 7.12502
rthumb -9.5044 -38.8561
lclavicle -1.74931e-014 -4.65156e-014
lhumerus 42.0492 -23.487 35.326
lradius 22.4187
lwrist 7.23277
lhand -25.505 -14.248
lfingers 7.12502
lthumb 1.02384 15.7292
rfemur -113.502 5.41196 9.91921
rtibia 108.159
rfoot -11.0041 3.82566
rtoes -19.6733
lfemur -105.443 7.72968 -26.0648
ltibia 105.078
lfoot -21.6611 -23.3014
ltoes 9.61232
684
root 23.5522 12.2628 3.65817 -136.72 -46.256 177.488
lowerback 25.1742 -0.606915 -6.62835
upperback 11.9986 -4.05684 -3.00485
thorax -0.48498 -2.81147 1.51056
lowerneck -6.31212 7.55557 3.25531
upperneck -17.8781 8.78852 -5.92533
head -4.40291 3.97751 -2.67792
rclavicle 9.06458e-014 1.35174e-014
rhumerus -9.35548 4.23054 -82.0332
rradius 87.2719
rwrist -19.0671
rhand -35.8633 -8.16321
rfingers 7.12502
rthumb -8.97794 -37.9522
lclavicle 9.06458e-014 1.35174e-014
lhumerus 42.0936 -24.1989 35.2008
lradius 22.9139
lwrist 6.94662
lhand -26.9988 -15.2048
lfingers 7.12502
lthumb -0.418918 14.7746
rfemur -113.392 4.19415 9.92514
rtibia 110.347
rfoot -12.9867 5.60463
rtoes -22.546
lfemur -107.117 8.14234 -25.211
ltibia 107.099
lfoot -19.7571 -26.1995
ltoes 13.7808
685
root 23.5491 12.035 3.66143 -136.565 -46.1271 177.162
lowerback 26.0623 -0.322757 -7.01905
upperback 11.8548 -3.87103 -2.90472
thorax -1.04193 -2.71937 1.84579
lowerneck -6.6574 7.4715 3.26922
upperneck -18.0483 8.58998 -6.22868
head -4.39784 3.87249 -2.77327
rclavicle -5.56597e-014 -2.06736e-014
rhumerus -8.9941 4.3135 -82.0457
rradius 90.6659
rwrist -19.1069
rhand -35.2969 -7.31128
rfingers 7.12502
rthumb -8.43129 -37.123
lclavicle -5.56597e-014 -2.06736e-014
lhumerus 42.0573 -24.8479 35.1758
lradius 23.4623
lwrist 6.51961
lhand -28.3987 -16.3176
lfingers 7.12502
lthumb -1.77097 13.6548
rfemur -113.249 2.90584 10.1201
rtibia 112.113
rfoot -15.8892 7.05976
rtoes -25.8865
lfemur -108.71 8.43585 -24.78
ltibia 109.293
lfoot -18.2797 -28.0415
ltoes 16.6397
686
root 23.5468 11.7988 3.66598 -136.345 -45.9397 176.744
lowerback 26.9762 -0.014847 -7.52566
upperback 11.6897 -3.69288 -2.78833
thorax -1.62398 -2.63075 2.26377
lowerneck -6.74773 7.39011 3.2846
upperneck -18.7996 8.34495 -6.77468
head -4.09801 3.7797 -2.70054
rclavicle 1.78111e-013 9.54166e-014
rhumerus -8.57315 4.45234 -81.9136
rradius 94.0244
rwrist -18.8675
rhand -34.7306 -6.4832
rfingers 7.12502
rthumb -7.88481 -36.3162
lclavicle 1.78111e-013 9.54166e-014
lhumerus 41.9661 -25.5624 35.0583
lradius 24.1686
lwrist 6.33552
lhand -29.5595 -17.5488
lfingers 7.12502
lthumb -2.89205 12.4114
rfemur -113.302 1.61796 10.465
rtibia 113.672
rfoot -19.5271 7.93217
rtoes -29.1293
lfemur -110.303 8.65936 -24.8313
ltibia 111.63
lfoot -17.5704 -28.984
ltoes 18.1423
687
root 23.5447 11.5526 3.67181 -136.097 -45.6429 176.282
lowerback 27.8904 0.341846 -8.15952
upperback 11.5009 -3.49716 -2.67242
thorax -2.2255 -2.53214 2.74533
lowerneck -7.01626 7.32258 3.25129
upperneck -19.0381 8.15977 -7.117
head -4.12055 3.68684 -2.7953
rclavicle -1.51076e-013 -8.26944e-014
rhumerus -8.11525 4.6331 -81.6484
rradius 97.3252
rwrist -18.3489
rhand -34.1762 -5.74081
rfingers 7.12502
rthumb -7.34969 -35.5932
lclavicle -1.51076e-013 -8.26944e-014
lhumerus 41.8291 -26.3723 34.8864
lradius 25.0208
lwrist 6.44717
lhand -30.4611 -18.8517
lfingers 7.12502
lthumb -3.76271 11.0948
rfemur -113.713 0.403791 10.9272
rtibia 115.235
rfoot -23.2308 8.18778
rtoes -31.1744
lfemur -111.895 8.82785 -25.3942
ltibia 114.072
lfoot -17.8993 -29.0384
ltoes 17.9908
688
root 23.5408 11.2984 3.67758 -136.032 -45.1336 175.993
lowerback 28.7831 0.809281 -8.91881
upperback 11.314 -3.21584 -2.57672
thorax -2.81858 -2.3936 3.24577
lowerneck -7.20915 7.2533 3.0742
upperneck -19.3793 7.98826 -7.31999
head -4.20034 3.6021 -2.83081
rclavicle -2.70347e-014 7.95139e-015
rhumerus -7.61527 4.87534 -81.2819
rradius 100.559
rwrist -17.636
rhand -33.6753 -5.18016
rfingers 7.12502
rthumb -6.86612 -35.0488
lclavicle -2.70347e-014 7.95139e-015
lhumerus 41.6306 -27.2893 34.6121
lradius 26.0321
lwrist 6.93591
lhand -31.2153 -20.2045
lfingers 7.12502
lthumb -4.49106 9.72786
rfemur -114.512 -0.507885 11.5061
rtibia 116.946
rfoot -26.3688 8.16447
rtoes -31.6879
lfemur -113.49 9.17016 -26.3468
ltibia 116.625
lfoot -18.9679 -28.4638
ltoes 16.9226
689
root 23.5325 11.0388 3.68266 -136.341 -44.3716 176.054
lowerback 29.6537 1.42704 -9.77654
upperback 11.1485 -2.8 -2.48879
thorax -3.39293 -2.19398 3.74491
lowerneck -7.30876 7.18678 2.75504
upperneck -19.8253 7.83613 -7.39705
head -4.3396 3.53043 -2.81143
rclavicle -1.43125e-014 1.39149e-014
rhumerus -7.07073 5.21605 -80.8206
rradius 103.7
rwrist -16.8621
rhand -33.2696 -4.81532
rfingers 7.12502
rthumb -6.47452 -34.6964
lclavicle -1.43125e-014 1.39149e-014
lhumerus 41.3189 -28.277 34.3145
lradius 27.1303
lwrist 7.74716
lhand -32.1826 -22.0416
lfingers 7.12502
lthumb -5.42507 7.86896
rfemur -115.646 -0.944415 12.218
rtibia 118.888
rfoot -28.4958 8.26584
rtoes -30.6508
lfemur -115.044 9.87821 -27.5481
ltibia 119.289
lfoot -20.4631 -27.4876
ltoes 15.0371
690
root 23.5178 10.7785 3.68728 -137.146 -43.3812 176.569
lowerback 30.5079 2.19719 -10.6526
upperback 11.0241 -2.23075 -2.39911
thorax -3.94219 -1.9258 4.19658
lowerneck -7.29333 7.1262 2.29018
upperneck -20.3834 7.71001 -7.33903
head -4.54451 3.47625 -2.73416
rclavicle -5.88403e-014 -6.91771e-014
rhumerus -6.46147 5.6584 -80.294
rradius 106.704
rwrist -16.1519
rhand -32.9576 -4.60736
rfingers 7.12502
rthumb -6.17323 -34.4974
lclavicle -5.88403e-014 -6.91771e-014
lhumerus 40.8741 -29.304 34.041
lradius 28.2028
lwrist 8.75965
lhand -33.85 -24.7932
lfingers 7.12502
lthumb -7.03472 5.06989
rfemur -116.986 -0.811643 13.0889
rtibia 121.049
rfoot -29.423 8.62022
rtoes -28.5505
lfemur -116.515 11.0929 -28.8374
ltibia 122.042
lfoot -22.045 -26.3563
ltoes 12.4677
